<svg width="32" height="32" viewBox="0 0 32 32" fill="none" xmlns="http://www.w3.org/2000/svg">
<path fill-rule="evenodd" clip-rule="evenodd" d="M13.5 4C13.5 3.17157 12.8284 2.5 12 2.5H6C5.17157 2.5 4.5 3.17157 4.5 4C4.5 4.82843 5.17157 5.5 6 5.5H8.37868L2.93934 10.9393C2.35356 11.5251 2.35356 12.4749 2.93934 13.0607C3.52513 13.6464 4.47488 13.6464 5.06066 13.0607L10.5 7.62132V10C10.5 10.8284 11.1716 11.5 12 11.5C12.8284 11.5 13.5 10.8284 13.5 10V4ZM29.5 4C29.5 3.60218 29.342 3.22064 29.0607 2.93934C28.7794 2.65804 28.3978 2.5 28 2.5H18C17.6022 2.5 17.2206 2.65804 16.9393 2.93934C16.658 3.22064 16.5 3.60218 16.5 4L16.5 14C16.5 14.8284 17.1716 15.5 18 15.5H28C28.8284 15.5 29.5 14.8284 29.5 14V4ZM19.5 5.5L26.5 5.5V12.5H19.5L19.5 5.5ZM29.0607 18.9393C29.6464 19.5251 29.6464 20.4749 29.0607 21.0607L23.6213 26.5H26C26.8284 26.5 27.5 27.1716 27.5 28C27.5 28.8284 26.8284 29.5 26 29.5H20C19.1716 29.5 18.5 28.8284 18.5 28V22C18.5 21.1716 19.1716 20.5 20 20.5C20.8284 20.5 21.5 21.1716 21.5 22V24.3787L26.9393 18.9393C27.5251 18.3536 28.4749 18.3536 29.0607 18.9393ZM5.5 23C5.5 21.067 7.067 19.5 9 19.5C10.933 19.5 12.5 21.067 12.5 23C12.5 24.933 10.933 26.5 9 26.5C7.06701 26.5 5.5 24.933 5.5 23ZM9 16.5C5.41015 16.5 2.5 19.4101 2.5 23C2.5 26.5899 5.41015 29.5 9 29.5C12.5899 29.5 15.5 26.5899 15.5 23C15.5 19.4101 12.5899 16.5 9 16.5Z" fill="currentColor"/>
</svg>
