<svg width="127" height="25" viewBox="0 0 127 25" fill="none" xmlns="http://www.w3.org/2000/svg">
<rect y="0.874512" width="126.347" height="24.1255" rx="2" fill="black"/>
<path d="M115.42 18.3738C113.447 18.3738 112.067 16.9144 112.067 14.7846C112.067 12.7599 113.434 11.1953 115.354 11.1953C117.352 11.1953 118.417 12.7073 118.417 14.6005V15.1264H113.579C113.697 16.3097 114.407 17.0328 115.42 17.0328C116.195 17.0328 116.813 16.6383 117.024 15.9284L118.378 16.4411C117.891 17.6507 116.8 18.3738 115.42 18.3738ZM115.341 12.5232C114.526 12.5232 113.895 13.0097 113.658 13.9431H116.826C116.813 13.1806 116.34 12.5232 115.341 12.5232Z" fill="white"/>
<path d="M105.281 16.9144L106.464 15.9678C106.872 16.6383 107.661 17.0854 108.463 17.0854C109.133 17.0854 109.751 16.8487 109.751 16.2308C109.751 15.6391 109.173 15.5734 108.081 15.3499C106.99 15.1264 105.741 14.8503 105.741 13.3778C105.741 12.1156 106.846 11.1953 108.436 11.1953C109.646 11.1953 110.724 11.7344 111.224 12.4969L110.159 13.4567C109.764 12.8387 109.107 12.4838 108.344 12.4838C107.7 12.4838 107.279 12.773 107.279 13.2332C107.279 13.7328 107.779 13.8248 108.647 14.0089C109.817 14.2587 111.289 14.5085 111.289 16.0861C111.289 17.4798 110.014 18.3738 108.45 18.3738C107.174 18.3738 105.899 17.861 105.281 16.9144Z" fill="white"/>
<path d="M104.776 14.7846C104.776 16.9276 103.396 18.3738 101.45 18.3738C99.504 18.3738 98.1235 16.9276 98.1235 14.7846C98.1235 12.6415 99.504 11.1953 101.45 11.1953C103.396 11.1953 104.776 12.6415 104.776 14.7846ZM99.7144 14.7846C99.7144 16.1913 100.385 17.0459 101.45 17.0459C102.515 17.0459 103.185 16.1913 103.185 14.7846C103.185 13.3778 102.515 12.5232 101.45 12.5232C100.385 12.5232 99.7144 13.3778 99.7144 14.7846Z" fill="white"/>
<path d="M97.3294 14.7846C97.3294 16.9276 95.9489 18.3738 94.0031 18.3738C92.0573 18.3738 90.6768 16.9276 90.6768 14.7846C90.6768 12.6415 92.0573 11.1953 94.0031 11.1953C95.9489 11.1953 97.3294 12.6415 97.3294 14.7846ZM92.2677 14.7846C92.2677 16.1913 92.9382 17.0459 94.0031 17.0459C95.0681 17.0459 95.7386 16.1913 95.7386 14.7846C95.7386 13.3778 95.0681 12.5232 94.0031 12.5232C92.9382 12.5232 92.2677 13.3778 92.2677 14.7846Z" fill="white"/>
<path d="M87.9347 18.229V17.2561C87.5534 17.8872 86.6331 18.3736 85.3973 18.3736C82.9519 18.3736 81.1375 16.4015 81.1375 13.5485C81.1375 10.6824 82.965 8.64453 85.5024 8.64453C87.4351 8.64453 88.7367 9.68318 89.3152 11.3529L87.7112 11.8919C87.4351 10.7744 86.6463 10.1302 85.5156 10.1302C83.9248 10.1302 82.8204 11.4844 82.8204 13.5222C82.8204 15.5601 83.9248 16.9274 85.5419 16.9274C86.9092 16.9274 87.8032 15.9545 87.8558 14.6135H85.371V13.1409H89.473V18.229H87.9347Z" fill="white"/>
<path d="M71.4409 18.2292V11.3268H73.0186V12.063C73.413 11.6029 74.031 11.1953 74.925 11.1953C76.3712 11.1953 77.2389 12.1945 77.2389 13.6802V18.2292H75.6612V14.1403C75.6612 13.2858 75.3194 12.6678 74.4517 12.6678C73.7417 12.6678 73.0186 13.1937 73.0186 14.1798V18.2292H71.4409Z" fill="white"/>
<path d="M68.9942 10.4984C68.4552 10.4984 68.0739 10.1303 68.0739 9.59125C68.0739 9.05221 68.4552 8.68408 68.9942 8.68408C69.5333 8.68408 69.9146 9.05221 69.9146 9.59125C69.9146 10.1303 69.5333 10.4984 68.9942 10.4984ZM69.7831 11.3267V18.2291H68.2054V11.3267H69.7831Z" fill="white"/>
<path d="M63.8385 8.78906V18.2289H62.2608V8.78906H63.8385Z" fill="white"/>
<path d="M60.603 8.78906V18.2289H59.0253V8.78906H60.603Z" fill="white"/>
<path d="M53.8683 18.3475C52.5535 18.3475 51.5412 17.5455 51.5412 16.3097C51.5412 14.9949 52.5273 14.4164 53.8551 14.1403L55.7615 13.7459V13.6276C55.7615 12.9702 55.4197 12.5626 54.5783 12.5626C53.8288 12.5626 53.4344 12.9045 53.2504 13.575L51.7647 13.2332C52.1065 12.0893 53.1189 11.1953 54.644 11.1953C56.3006 11.1953 57.2998 11.9842 57.2998 13.575V16.5463C57.2998 16.9407 57.4707 17.0591 57.9045 17.0065V18.2292C56.7607 18.3606 56.1559 18.1371 55.9193 17.5718C55.4854 18.0583 54.7623 18.3475 53.8683 18.3475ZM55.7615 15.7969V14.9555L54.2759 15.271C53.6053 15.4156 53.1057 15.626 53.1057 16.2439C53.1057 16.783 53.5002 17.0854 54.1049 17.0854C54.9464 17.0854 55.7615 16.6383 55.7615 15.7969Z" fill="white"/>
<path d="M47.743 16.4939V12.668H46.7833V11.3269H47.743V9.30225H49.2944V11.3269H50.7406V12.668H49.2944V16.2441C49.2944 16.862 49.6494 16.9277 50.2147 16.9277C50.4777 16.9277 50.6223 16.9146 50.859 16.8883V18.2162C50.5697 18.2688 50.1753 18.3082 49.7677 18.3082C48.453 18.3082 47.743 17.9006 47.743 16.4939Z" fill="white"/>
<path d="M40.3786 16.9144L41.5619 15.9678C41.9694 16.6383 42.7583 17.0854 43.5603 17.0854C44.2308 17.0854 44.8487 16.8487 44.8487 16.2308C44.8487 15.6391 44.2702 15.5734 43.179 15.3499C42.0878 15.1264 40.8388 14.8503 40.8388 13.3778C40.8388 12.1156 41.9431 11.1953 43.534 11.1953C44.7435 11.1953 45.8216 11.7344 46.3212 12.4969L45.2563 13.4567C44.8619 12.8387 44.2045 12.4838 43.4419 12.4838C42.7977 12.4838 42.377 12.773 42.377 13.2332C42.377 13.7328 42.8766 13.8248 43.7443 14.0089C44.9145 14.2587 46.387 14.5085 46.387 16.0861C46.387 17.4798 45.1117 18.3738 43.5471 18.3738C42.2718 18.3738 40.9965 17.861 40.3786 16.9144Z" fill="white"/>
<path d="M33.6935 18.2292V11.3268H35.2712V12.063C35.6656 11.6029 36.2835 11.1953 37.1775 11.1953C38.6238 11.1953 39.4915 12.1945 39.4915 13.6802V18.2292H37.9138V14.1403C37.9138 13.2858 37.572 12.6678 36.7042 12.6678C35.9943 12.6678 35.2712 13.1937 35.2712 14.1798V18.2292H33.6935Z" fill="white"/>
<path d="M31.9755 8.78906V18.2289H30.2926V8.78906H31.9755Z" fill="white"/>
<path d="M20.316 20.537C21.08 20.3712 21.8904 19.9196 21.8904 19.9196L20.472 18.7513C19.7708 18.1742 19.174 17.4808 18.7074 16.7018C18.0626 15.6254 17.1718 14.7171 16.1083 14.0516L15.589 13.7491C15.411 13.6254 15.2869 13.4326 15.2693 13.2151C15.258 13.0749 15.2916 12.9495 15.37 12.8392C15.6404 12.458 17.0382 10.7995 17.2944 10.5876C17.6242 10.3149 17.9919 10.0881 18.3329 9.82845C18.3814 9.79149 18.4301 9.7547 18.478 9.71717C18.4796 9.71551 18.4821 9.71421 18.4835 9.71273C18.593 9.62634 18.6962 9.53458 18.7783 9.42574C19.0748 9.08248 19.1469 8.77897 19.1645 8.64467C19.1244 8.51542 19.0048 8.22639 18.6713 7.89298C18.8803 7.90579 19.1333 8.07109 19.3627 8.26558C19.5167 8.01947 19.6779 7.75942 19.839 7.49881C19.9465 7.3248 19.7869 7.19456 19.7825 7.1905L19.7816 7.19029L19.7814 7.18937C19.7773 7.18492 19.6471 7.02535 19.4734 7.13292C19.1021 7.36268 18.7309 7.59261 18.4009 7.80158C18.4009 7.80158 18.0097 7.79342 17.5464 8.19352C17.4374 8.27578 17.3456 8.37908 17.2594 8.48828C17.2578 8.48997 17.2563 8.49219 17.255 8.49385C17.2173 8.54158 17.1805 8.59027 17.1437 8.63892C16.8838 8.98013 16.6572 9.34754 16.3845 9.67742C16.1728 9.93376 14.514 11.3313 14.1329 11.6017C14.0225 11.6801 13.8973 11.7139 13.7569 11.7024C13.5396 11.6849 13.3466 11.5607 13.2229 11.3827L12.9205 10.8634C12.2549 9.79964 11.3466 8.90917 10.2701 8.26445C9.49112 7.79787 8.7979 7.20088 8.22055 6.49988L7.05181 5.08154C7.05181 5.08154 6.60006 5.89177 6.43436 6.65593C6.66488 6.9362 7.26617 7.6318 7.9661 8.16305C7.21359 7.8092 6.65729 7.5356 6.21853 7.30676C6.15092 7.80716 6.17729 8.5639 6.24695 9.14991C6.72194 9.35778 7.53069 9.67799 8.35394 9.84812C7.69547 10.0021 6.97304 10.0301 6.41526 10.0192C6.51352 10.3819 6.65023 10.752 6.83411 11.1242C6.91232 11.2964 6.99794 11.4645 7.09044 11.6291C7.38561 11.7102 8.54453 11.8791 9.16121 11.7405C8.54768 11.9595 7.51769 12.3274 7.51769 12.3274C8.30879 13.3117 9.18313 14.1125 9.18313 14.1125C10.5131 13.3973 10.8163 13.2996 11.8138 12.6473C10.1985 13.9616 9.77923 14.4983 9.32578 15.0497L9.00981 15.4931C8.84563 15.7234 8.70313 15.9681 8.58408 16.2246C8.18564 17.0818 7.62171 18.9084 7.62171 18.9084C7.52101 19.2268 7.75432 19.4601 8.06344 19.3501C8.06344 19.3501 9.88974 18.7862 10.7473 18.3878C11.0037 18.2685 11.2487 18.1261 11.4788 17.962L11.9222 17.6461C12.071 17.5237 12.2189 17.4037 12.3812 17.2621C12.3812 17.2621 13.4974 18.5845 14.6448 19.4543C14.6448 19.4543 15.0128 18.4243 15.2318 17.8108C15.093 18.4277 15.2619 19.5866 15.3432 19.8815C15.5074 19.9741 15.6759 20.0597 15.8481 20.1379C16.2205 20.3219 16.5904 20.4585 16.9531 20.5567C16.9424 19.9987 16.9702 19.2766 17.1242 18.6181C17.2944 19.4413 17.6144 20.2502 17.8225 20.725C18.4085 20.7947 19.1653 20.821 19.6657 20.7534C19.4368 20.3147 19.1632 19.758 18.8094 19.0059C19.3406 19.7058 20.0363 20.3071 20.3166 20.5376L20.316 20.537Z" fill="white"/>
</svg>
