<svg xmlns="http://www.w3.org/2000/svg" xmlns:xlink="http://www.w3.org/1999/xlink" width="1000" zoomAndPan="magnify" viewBox="0 0 750 201.000001" height="268" preserveAspectRatio="xMidYMid meet" version="1.0"><defs><g/></defs><path fill="#000000" d="M 175.457031 161.554688 L 163.867188 152.015625 C 157.566406 146.828125 152.203125 140.597656 148.011719 133.597656 C 142.214844 123.925781 134.210938 115.761719 124.65625 109.78125 L 119.988281 107.066406 C 118.390625 105.953125 117.273438 104.222656 117.117188 102.265625 C 117.015625 101.003906 117.316406 99.878906 118.019531 98.886719 C 120.449219 95.464844 133.679688 81.226562 135.980469 79.324219 C 138.945312 76.871094 142.25 74.835938 145.3125 72.5 C 145.75 72.167969 146.1875 71.839844 146.617188 71.5 C 146.632812 71.484375 146.652344 71.472656 146.667969 71.460938 C 147.648438 70.683594 148.578125 69.859375 149.316406 68.882812 C 152.910156 64.722656 152.835938 61.203125 152.835938 61.203125 C 152.835938 61.203125 152.839844 61.199219 152.84375 61.199219 C 152.460938 60.261719 151.085938 57.347656 148.289062 55.980469 C 150.761719 55.933594 153.550781 56.859375 154.816406 58.097656 C 156.335938 55.710938 157.320312 54.164062 158.847656 51.566406 C 159.210938 50.949219 159.40625 49.804688 158.710938 49.167969 C 158.710938 49.167969 158.707031 49.167969 158.703125 49.167969 C 158.703125 49.167969 158.703125 49.164062 158.703125 49.160156 C 158.691406 49.144531 158.671875 49.136719 158.660156 49.121094 C 158.644531 49.109375 158.636719 49.09375 158.621094 49.078125 C 158.621094 49.078125 158.621094 49.078125 158.617188 49.078125 C 158.617188 49.078125 158.617188 49.074219 158.617188 49.074219 C 158.589844 49.042969 158.554688 49.023438 158.527344 48.996094 C 158.507812 48.976562 158.492188 48.957031 158.476562 48.9375 C 158.457031 48.917969 158.433594 48.902344 158.414062 48.886719 C 158.386719 48.859375 158.367188 48.824219 158.339844 48.796875 C 158.339844 48.796875 158.332031 48.792969 158.332031 48.796875 C 158.332031 48.796875 158.332031 48.792969 158.332031 48.789062 C 158.320312 48.777344 158.300781 48.765625 158.289062 48.753906 C 158.277344 48.738281 158.265625 48.722656 158.253906 48.707031 C 158.253906 48.707031 158.246094 48.707031 158.246094 48.707031 C 158.246094 48.707031 158.246094 48.707031 158.246094 48.703125 C 157.605469 48.007812 156.464844 48.199219 155.847656 48.5625 C 152.464844 50.554688 149.175781 52.695312 146.210938 54.574219 C 146.210938 54.574219 142.695312 54.5 138.53125 58.09375 C 137.550781 58.832031 136.726562 59.761719 135.953125 60.742188 C 135.9375 60.757812 135.925781 60.777344 135.914062 60.792969 C 135.574219 61.222656 135.242188 61.660156 134.914062 62.097656 C 132.578125 65.164062 130.542969 68.464844 128.089844 71.429688 C 126.1875 73.734375 111.949219 86.957031 108.527344 89.390625 C 107.535156 90.09375 106.410156 90.398438 105.148438 90.292969 C 103.195312 90.136719 101.460938 89.019531 100.347656 87.421875 L 97.632812 82.753906 C 91.652344 73.195312 83.488281 65.191406 73.816406 59.398438 C 66.816406 55.207031 60.585938 49.84375 55.398438 43.542969 L 45.859375 31.953125 C 45.386719 31.382812 44.484375 31.476562 44.148438 32.132812 C 43.0625 34.246094 40.992188 38.707031 39.40625 44.707031 C 39.367188 44.851562 39.402344 45 39.492188 45.113281 C 41.46875 47.496094 46.035156 52.75 51.476562 57.191406 C 51.855469 57.5 51.546875 58.113281 51.074219 57.984375 C 46.378906 56.703125 41.816406 54.652344 38.402344 52.902344 C 38.125 52.761719 37.785156 52.9375 37.746094 53.246094 C 37.214844 57.5 37.078125 62.171875 37.640625 67.09375 C 37.65625 67.253906 37.757812 67.394531 37.90625 67.457031 C 41.800781 69.152344 48.027344 71.609375 54.566406 73.175781 C 55.039062 73.289062 55.023438 73.972656 54.546875 74.0625 C 49.457031 75.019531 44.125 75.234375 39.792969 75.179688 C 39.488281 75.175781 39.261719 75.460938 39.34375 75.753906 C 40.214844 78.828125 41.394531 81.953125 42.949219 85.097656 C 43.589844 86.511719 44.289062 87.898438 45.039062 89.253906 C 45.167969 89.488281 45.414062 89.625 45.679688 89.613281 C 49.257812 89.4375 53.582031 89.0625 57.929688 88.292969 C 58.667969 88.164062 59.066406 89.140625 58.441406 89.558594 C 55.488281 91.53125 52.339844 93.230469 49.414062 94.628906 C 49.019531 94.816406 48.894531 95.316406 49.152344 95.667969 C 50.890625 98.023438 52.804688 100.253906 54.882812 102.332031 C 54.882812 102.332031 65.113281 112.871094 65.394531 113.695312 C 71.363281 107.582031 81.179688 100.804688 92.015625 94.890625 C 77.5 106.699219 69.410156 115.417969 65.335938 120.371094 L 62.496094 124.355469 C 61.023438 126.425781 59.742188 128.625 58.671875 130.929688 C 55.09375 138.632812 49.191406 154.214844 49.191406 154.214844 C 48.738281 155.433594 49.105469 156.636719 49.890625 157.421875 C 49.910156 157.4375 49.925781 157.457031 49.949219 157.472656 C 49.964844 157.492188 49.984375 157.511719 50 157.53125 C 50.789062 158.316406 51.988281 158.683594 53.210938 158.230469 C 53.210938 158.230469 68.785156 152.328125 76.492188 148.75 C 78.796875 147.679688 80.996094 146.398438 83.066406 144.925781 L 87.453125 141.796875 C 89.777344 140.140625 92.957031 140.40625 94.976562 142.421875 L 105.089844 152.539062 C 107.167969 154.617188 109.398438 156.53125 111.753906 158.269531 C 112.105469 158.527344 112.605469 158.402344 112.792969 158.007812 C 114.195312 155.082031 115.894531 151.929688 117.863281 148.980469 C 118.285156 148.355469 119.257812 148.753906 119.128906 149.492188 C 118.359375 153.84375 117.984375 158.164062 117.808594 161.742188 C 117.792969 162.003906 117.933594 162.253906 118.167969 162.382812 C 119.523438 163.132812 120.910156 163.832031 122.324219 164.472656 C 125.46875 166.027344 128.597656 167.207031 131.667969 168.078125 C 131.960938 168.160156 132.246094 167.933594 132.242188 167.628906 C 132.1875 163.296875 132.398438 157.964844 133.359375 152.875 C 133.449219 152.394531 134.132812 152.378906 134.246094 152.855469 C 135.808594 159.394531 138.265625 165.621094 139.964844 169.515625 C 140.027344 169.664062 140.164062 169.765625 140.328125 169.78125 C 145.25 170.34375 149.921875 170.207031 154.175781 169.675781 C 154.488281 169.636719 154.664062 169.300781 154.519531 169.019531 C 152.769531 165.605469 150.71875 161.039062 149.4375 156.347656 C 149.3125 155.875 149.921875 155.566406 150.230469 155.945312 C 154.671875 161.386719 159.925781 165.953125 162.308594 167.925781 C 162.421875 168.023438 162.574219 168.054688 162.714844 168.015625 C 168.714844 166.429688 173.175781 164.359375 175.289062 163.273438 C 175.945312 162.9375 176.039062 162.035156 175.46875 161.5625 Z M 175.457031 161.554688 " fill-opacity="1" fill-rule="nonzero"/><g fill="#000000" fill-opacity="1"><g transform="translate(169.994159, 127.988248)"><g><path d="M 12.921875 -18.765625 C 12.921875 -21.953125 13.617188 -24.453125 15.015625 -26.265625 C 16.421875 -28.078125 18.316406 -28.984375 20.703125 -28.984375 C 22.554688 -28.984375 24.039062 -28.382812 25.15625 -27.1875 C 26.28125 -26 27.03125 -24.523438 27.40625 -22.765625 L 37.25 -26.765625 C 36.726562 -28.804688 35.726562 -30.71875 34.25 -32.5 C 32.78125 -34.289062 30.90625 -35.722656 28.625 -36.796875 C 26.34375 -37.867188 23.675781 -38.40625 20.625 -38.40625 C 16.914062 -38.40625 13.632812 -37.570312 10.78125 -35.90625 C 7.925781 -34.238281 5.6875 -31.925781 4.0625 -28.96875 C 2.445312 -26.019531 1.640625 -22.617188 1.640625 -18.765625 C 1.640625 -14.910156 2.445312 -11.519531 4.0625 -8.59375 C 5.6875 -5.675781 7.925781 -3.382812 10.78125 -1.71875 C 13.632812 -0.0507812 16.914062 0.78125 20.625 0.78125 C 23.71875 0.78125 26.414062 0.234375 28.71875 -0.859375 C 31.03125 -1.953125 32.910156 -3.390625 34.359375 -5.171875 C 35.816406 -6.953125 36.804688 -8.890625 37.328125 -10.984375 L 27.40625 -14.84375 C 27.03125 -13.039062 26.28125 -11.554688 25.15625 -10.390625 C 24.039062 -9.222656 22.554688 -8.640625 20.703125 -8.640625 C 18.316406 -8.640625 16.421875 -9.53125 15.015625 -11.3125 C 13.617188 -13.09375 12.921875 -15.578125 12.921875 -18.765625 Z M 12.921875 -18.765625 "/></g></g></g><g fill="#000000" fill-opacity="1"><g transform="translate(207.88826, 127.988248)"><g><path d="M 39.328125 -18.765625 C 39.328125 -22.671875 38.53125 -26.097656 36.9375 -29.046875 C 35.34375 -31.992188 33.117188 -34.289062 30.265625 -35.9375 C 27.410156 -37.582031 24.148438 -38.40625 20.484375 -38.40625 C 16.773438 -38.40625 13.503906 -37.582031 10.671875 -35.9375 C 7.835938 -34.289062 5.625 -31.992188 4.03125 -29.046875 C 2.4375 -26.097656 1.640625 -22.671875 1.640625 -18.765625 C 1.640625 -14.867188 2.4375 -11.457031 4.03125 -8.53125 C 5.625 -5.601562 7.835938 -3.316406 10.671875 -1.671875 C 13.503906 -0.0351562 16.773438 0.78125 20.484375 0.78125 C 24.148438 0.78125 27.410156 -0.0351562 30.265625 -1.671875 C 33.117188 -3.316406 35.34375 -5.601562 36.9375 -8.53125 C 38.53125 -11.457031 39.328125 -14.867188 39.328125 -18.765625 Z M 12.984375 -18.765625 C 12.984375 -22.054688 13.660156 -24.59375 15.015625 -26.375 C 16.378906 -28.15625 18.203125 -29.046875 20.484375 -29.046875 C 22.765625 -29.046875 24.582031 -28.15625 25.9375 -26.375 C 27.300781 -24.59375 27.984375 -22.054688 27.984375 -18.765625 C 27.984375 -15.484375 27.300781 -12.953125 25.9375 -11.171875 C 24.582031 -9.390625 22.765625 -8.5 20.484375 -8.5 C 18.203125 -8.5 16.378906 -9.390625 15.015625 -11.171875 C 13.660156 -12.953125 12.984375 -15.484375 12.984375 -18.765625 Z M 12.984375 -18.765625 "/></g></g></g><g fill="#000000" fill-opacity="1"><g transform="translate(248.993743, 127.988248)"><g><path d="M 17.921875 0.78125 C 20.148438 0.78125 22.144531 0.363281 23.90625 -0.46875 C 25.664062 -1.300781 27.070312 -2.382812 28.125 -3.71875 L 28.125 0 L 39.546875 0 L 39.546875 -51.25 L 28.125 -51.25 L 28.125 -33.828125 C 27.070312 -35.160156 25.664062 -36.253906 23.90625 -37.109375 C 22.144531 -37.972656 20.148438 -38.40625 17.921875 -38.40625 C 14.441406 -38.40625 11.5 -37.507812 9.09375 -35.71875 C 6.695312 -33.9375 4.867188 -31.554688 3.609375 -28.578125 C 2.347656 -25.609375 1.71875 -22.335938 1.71875 -18.765625 C 1.71875 -15.203125 2.347656 -11.929688 3.609375 -8.953125 C 4.867188 -5.984375 6.695312 -3.617188 9.09375 -1.859375 C 11.5 -0.0976562 14.441406 0.78125 17.921875 0.78125 Z M 28.1875 -19.765625 L 28.1875 -17.765625 C 28.1875 -14.960938 27.492188 -12.785156 26.109375 -11.234375 C 24.734375 -9.691406 22.976562 -8.921875 20.84375 -8.921875 C 18.363281 -8.921875 16.46875 -9.835938 15.15625 -11.671875 C 13.851562 -13.503906 13.203125 -15.867188 13.203125 -18.765625 C 13.203125 -21.671875 13.851562 -24.039062 15.15625 -25.875 C 16.46875 -27.707031 18.363281 -28.625 20.84375 -28.625 C 22.976562 -28.625 24.734375 -27.859375 26.109375 -26.328125 C 27.492188 -24.804688 28.1875 -22.617188 28.1875 -19.765625 Z M 28.1875 -19.765625 "/></g></g></g><g fill="#000000" fill-opacity="1"><g transform="translate(292.240111, 127.988248)"><g><path d="M 20.703125 0.78125 C 24.460938 0.78125 27.910156 -0.144531 31.046875 -2 C 34.191406 -3.851562 36.453125 -6.585938 37.828125 -10.203125 L 28.265625 -13.28125 C 27.742188 -11.65625 26.828125 -10.414062 25.515625 -9.5625 C 24.203125 -8.707031 22.644531 -8.28125 20.84375 -8.28125 C 18.65625 -8.28125 16.832031 -8.976562 15.375 -10.375 C 13.925781 -11.78125 13.015625 -13.769531 12.640625 -16.34375 L 38.109375 -16.34375 L 38.109375 -19.34375 C 38.109375 -22.914062 37.429688 -26.140625 36.078125 -29.015625 C 34.722656 -31.890625 32.734375 -34.171875 30.109375 -35.859375 C 27.492188 -37.554688 24.285156 -38.40625 20.484375 -38.40625 C 16.867188 -38.40625 13.644531 -37.546875 10.8125 -35.828125 C 7.976562 -34.117188 5.738281 -31.785156 4.09375 -28.828125 C 2.457031 -25.878906 1.640625 -22.550781 1.640625 -18.84375 C 1.640625 -14.9375 2.4375 -11.507812 4.03125 -8.5625 C 5.625 -5.613281 7.847656 -3.316406 10.703125 -1.671875 C 13.554688 -0.0351562 16.890625 0.78125 20.703125 0.78125 Z M 20.34375 -29.546875 C 22.4375 -29.546875 24.03125 -28.925781 25.125 -27.6875 C 26.21875 -26.457031 26.789062 -25.007812 26.84375 -23.34375 L 12.984375 -23.34375 C 13.554688 -25.382812 14.484375 -26.925781 15.765625 -27.96875 C 17.054688 -29.019531 18.582031 -29.546875 20.34375 -29.546875 Z M 20.34375 -29.546875 "/></g></g></g><g fill="#000000" fill-opacity="1"><g transform="translate(331.846939, 127.988248)"><g><path d="M 3.71875 0 L 15.125 0 L 15.125 -21.484375 C 15.125 -23.722656 15.765625 -25.390625 17.046875 -26.484375 C 18.335938 -27.578125 19.769531 -28.125 21.34375 -28.125 C 23.195312 -28.125 24.539062 -27.503906 25.375 -26.265625 C 26.207031 -25.023438 26.625 -23.457031 26.625 -21.5625 L 26.625 0 L 38.046875 0 L 38.046875 -24.84375 C 38.046875 -28.9375 36.914062 -32.21875 34.65625 -34.6875 C 32.394531 -37.164062 29.335938 -38.40625 25.484375 -38.40625 C 23.097656 -38.40625 21.035156 -37.953125 19.296875 -37.046875 C 17.566406 -36.140625 16.175781 -35.066406 15.125 -33.828125 L 15.125 -37.609375 L 3.71875 -37.609375 Z M 3.71875 0 "/></g></g></g><g fill="#000000" fill-opacity="1"><g transform="translate(373.451955, 127.988248)"><g><path d="M 14.34375 0.71875 C 16.820312 0.71875 18.988281 0.363281 20.84375 -0.34375 C 22.695312 -1.0625 24.242188 -2.066406 25.484375 -3.359375 C 27.484375 -0.0234375 31.789062 1.09375 38.40625 0 L 38.40625 -8.421875 C 37.3125 -8.273438 36.546875 -8.367188 36.109375 -8.703125 C 35.679688 -9.035156 35.46875 -9.679688 35.46875 -10.640625 L 35.46875 -25.125 C 35.46875 -29.5 34.050781 -32.804688 31.21875 -35.046875 C 28.394531 -37.285156 24.507812 -38.40625 19.5625 -38.40625 C 16.375 -38.40625 13.597656 -37.851562 11.234375 -36.75 C 8.878906 -35.65625 6.960938 -34.203125 5.484375 -32.390625 C 4.015625 -30.585938 2.992188 -28.570312 2.421875 -26.34375 L 13.34375 -24.703125 C 13.675781 -26.222656 14.296875 -27.347656 15.203125 -28.078125 C 16.109375 -28.816406 17.394531 -29.1875 19.0625 -29.1875 C 20.914062 -29.1875 22.242188 -28.769531 23.046875 -27.9375 C 23.859375 -27.101562 24.265625 -26 24.265625 -24.625 L 24.265625 -23.984375 L 15.84375 -22.546875 C 13.175781 -22.171875 10.75 -21.53125 8.5625 -20.625 C 6.375 -19.71875 4.625 -18.457031 3.3125 -16.84375 C 2.007812 -15.226562 1.359375 -13.109375 1.359375 -10.484375 C 1.359375 -8.253906 1.914062 -6.304688 3.03125 -4.640625 C 4.144531 -2.972656 5.675781 -1.660156 7.625 -0.703125 C 9.582031 0.242188 11.820312 0.71875 14.34375 0.71875 Z M 24.265625 -13.484375 C 24.265625 -11.535156 23.523438 -10.070312 22.046875 -9.09375 C 20.578125 -8.125 18.890625 -7.640625 16.984375 -7.640625 C 15.648438 -7.640625 14.566406 -7.945312 13.734375 -8.5625 C 12.898438 -9.1875 12.484375 -10.09375 12.484375 -11.28125 C 12.484375 -12.613281 12.972656 -13.578125 13.953125 -14.171875 C 14.929688 -14.765625 16.179688 -15.179688 17.703125 -15.421875 L 24.265625 -16.625 Z M 24.265625 -13.484375 "/></g></g></g><g fill="#000000" fill-opacity="1"><g transform="translate(413.201491, 127.988248)"><g><path d="M 15.125 -21.484375 C 15.125 -23.722656 15.742188 -25.390625 16.984375 -26.484375 C 18.222656 -27.578125 19.582031 -28.125 21.0625 -28.125 C 22.914062 -28.125 24.234375 -27.503906 25.015625 -26.265625 C 25.796875 -25.023438 26.1875 -23.457031 26.1875 -21.5625 L 26.1875 0 L 37.609375 0 L 37.609375 -21.484375 C 37.609375 -23.722656 38.210938 -25.390625 39.421875 -26.484375 C 40.640625 -27.578125 42.007812 -28.125 43.53125 -28.125 C 45.34375 -28.125 46.648438 -27.503906 47.453125 -26.265625 C 48.265625 -25.023438 48.671875 -23.457031 48.671875 -21.5625 L 48.671875 0 L 60.09375 0 L 60.09375 -24.84375 C 60.09375 -28.9375 58.925781 -32.21875 56.59375 -34.6875 C 54.269531 -37.164062 51.203125 -38.40625 47.390625 -38.40625 C 44.484375 -38.40625 42.09375 -37.84375 40.21875 -36.71875 C 38.34375 -35.601562 36.859375 -34.453125 35.765625 -33.265625 C 34.671875 -34.878906 33.226562 -36.140625 31.4375 -37.046875 C 29.65625 -37.953125 27.644531 -38.40625 25.40625 -38.40625 C 23.03125 -38.40625 20.984375 -37.953125 19.265625 -37.046875 C 17.554688 -36.140625 16.175781 -35.066406 15.125 -33.828125 L 15.125 -37.609375 L 3.71875 -37.609375 L 3.71875 0 L 15.125 0 Z M 15.125 -21.484375 "/></g></g></g><g fill="#000000" fill-opacity="1"><g transform="translate(476.857859, 127.988248)"><g><path d="M 20.703125 0.78125 C 24.460938 0.78125 27.910156 -0.144531 31.046875 -2 C 34.191406 -3.851562 36.453125 -6.585938 37.828125 -10.203125 L 28.265625 -13.28125 C 27.742188 -11.65625 26.828125 -10.414062 25.515625 -9.5625 C 24.203125 -8.707031 22.644531 -8.28125 20.84375 -8.28125 C 18.65625 -8.28125 16.832031 -8.976562 15.375 -10.375 C 13.925781 -11.78125 13.015625 -13.769531 12.640625 -16.34375 L 38.109375 -16.34375 L 38.109375 -19.34375 C 38.109375 -22.914062 37.429688 -26.140625 36.078125 -29.015625 C 34.722656 -31.890625 32.734375 -34.171875 30.109375 -35.859375 C 27.492188 -37.554688 24.285156 -38.40625 20.484375 -38.40625 C 16.867188 -38.40625 13.644531 -37.546875 10.8125 -35.828125 C 7.976562 -34.117188 5.738281 -31.785156 4.09375 -28.828125 C 2.457031 -25.878906 1.640625 -22.550781 1.640625 -18.84375 C 1.640625 -14.9375 2.4375 -11.507812 4.03125 -8.5625 C 5.625 -5.613281 7.847656 -3.316406 10.703125 -1.671875 C 13.554688 -0.0351562 16.890625 0.78125 20.703125 0.78125 Z M 20.34375 -29.546875 C 22.4375 -29.546875 24.03125 -28.925781 25.125 -27.6875 C 26.21875 -26.457031 26.789062 -25.007812 26.84375 -23.34375 L 12.984375 -23.34375 C 13.554688 -25.382812 14.484375 -26.925781 15.765625 -27.96875 C 17.054688 -29.019531 18.582031 -29.546875 20.34375 -29.546875 Z M 20.34375 -29.546875 "/></g></g></g><g fill="#000000" fill-opacity="1"><g transform="translate(516.464687, 127.988248)"><g/></g></g><g fill="#000000" fill-opacity="1"><g transform="translate(530.666051, 127.988248)"><g><path d="M 39.6875 -4.5 L 39.6875 -37.609375 L 28.1875 -37.609375 L 28.1875 -33.90625 C 27.289062 -35.144531 25.9375 -36.203125 24.125 -37.078125 C 22.3125 -37.960938 20.289062 -38.40625 18.0625 -38.40625 C 14.632812 -38.40625 11.71875 -37.554688 9.3125 -35.859375 C 6.90625 -34.171875 5.0625 -31.921875 3.78125 -29.109375 C 2.5 -26.304688 1.859375 -23.191406 1.859375 -19.765625 C 1.859375 -16.335938 2.5 -13.21875 3.78125 -10.40625 C 5.0625 -7.601562 6.90625 -5.367188 9.3125 -3.703125 C 11.71875 -2.046875 14.632812 -1.21875 18.0625 -1.21875 C 20.289062 -1.21875 22.3125 -1.644531 24.125 -2.5 C 25.9375 -3.351562 27.289062 -4.398438 28.1875 -5.640625 L 28.1875 -3.21875 C 28.1875 -0.40625 27.445312 1.613281 25.96875 2.84375 C 24.5 4.082031 22.597656 4.703125 20.265625 4.703125 C 18.367188 4.703125 16.773438 4.25 15.484375 3.34375 C 14.203125 2.445312 13.320312 1.191406 12.84375 -0.421875 L 2 2.140625 C 3 5.804688 5.066406 8.585938 8.203125 10.484375 C 11.347656 12.390625 15.25 13.34375 19.90625 13.34375 C 23.757812 13.34375 27.171875 12.664062 30.140625 11.3125 C 33.117188 9.957031 35.453125 7.945312 37.140625 5.28125 C 38.835938 2.613281 39.6875 -0.644531 39.6875 -4.5 Z M 28.328125 -20.34375 L 28.328125 -19.203125 C 28.328125 -16.441406 27.640625 -14.320312 26.265625 -12.84375 C 24.890625 -11.375 23.128906 -10.640625 20.984375 -10.640625 C 18.554688 -10.640625 16.695312 -11.484375 15.40625 -13.171875 C 14.125 -14.859375 13.484375 -17.082031 13.484375 -19.84375 C 13.484375 -22.601562 14.125 -24.816406 15.40625 -26.484375 C 16.695312 -28.148438 18.554688 -28.984375 20.984375 -28.984375 C 23.128906 -28.984375 24.890625 -28.242188 26.265625 -26.765625 C 27.640625 -25.285156 28.328125 -23.144531 28.328125 -20.34375 Z M 28.328125 -20.34375 "/></g></g></g><g fill="#000000" fill-opacity="1"><g transform="translate(574.126525, 127.988248)"><g><path d="M 39.328125 -18.765625 C 39.328125 -22.671875 38.53125 -26.097656 36.9375 -29.046875 C 35.34375 -31.992188 33.117188 -34.289062 30.265625 -35.9375 C 27.410156 -37.582031 24.148438 -38.40625 20.484375 -38.40625 C 16.773438 -38.40625 13.503906 -37.582031 10.671875 -35.9375 C 7.835938 -34.289062 5.625 -31.992188 4.03125 -29.046875 C 2.4375 -26.097656 1.640625 -22.671875 1.640625 -18.765625 C 1.640625 -14.867188 2.4375 -11.457031 4.03125 -8.53125 C 5.625 -5.601562 7.835938 -3.316406 10.671875 -1.671875 C 13.503906 -0.0351562 16.773438 0.78125 20.484375 0.78125 C 24.148438 0.78125 27.410156 -0.0351562 30.265625 -1.671875 C 33.117188 -3.316406 35.34375 -5.601562 36.9375 -8.53125 C 38.53125 -11.457031 39.328125 -14.867188 39.328125 -18.765625 Z M 12.984375 -18.765625 C 12.984375 -22.054688 13.660156 -24.59375 15.015625 -26.375 C 16.378906 -28.15625 18.203125 -29.046875 20.484375 -29.046875 C 22.765625 -29.046875 24.582031 -28.15625 25.9375 -26.375 C 27.300781 -24.59375 27.984375 -22.054688 27.984375 -18.765625 C 27.984375 -15.484375 27.300781 -12.953125 25.9375 -11.171875 C 24.582031 -9.390625 22.765625 -8.5 20.484375 -8.5 C 18.203125 -8.5 16.378906 -9.390625 15.015625 -11.171875 C 13.660156 -12.953125 12.984375 -15.484375 12.984375 -18.765625 Z M 12.984375 -18.765625 "/></g></g></g><g fill="#000000" fill-opacity="1"><g transform="translate(615.232032, 127.988248)"><g><path d="M 39.328125 -18.765625 C 39.328125 -22.671875 38.53125 -26.097656 36.9375 -29.046875 C 35.34375 -31.992188 33.117188 -34.289062 30.265625 -35.9375 C 27.410156 -37.582031 24.148438 -38.40625 20.484375 -38.40625 C 16.773438 -38.40625 13.503906 -37.582031 10.671875 -35.9375 C 7.835938 -34.289062 5.625 -31.992188 4.03125 -29.046875 C 2.4375 -26.097656 1.640625 -22.671875 1.640625 -18.765625 C 1.640625 -14.867188 2.4375 -11.457031 4.03125 -8.53125 C 5.625 -5.601562 7.835938 -3.316406 10.671875 -1.671875 C 13.503906 -0.0351562 16.773438 0.78125 20.484375 0.78125 C 24.148438 0.78125 27.410156 -0.0351562 30.265625 -1.671875 C 33.117188 -3.316406 35.34375 -5.601562 36.9375 -8.53125 C 38.53125 -11.457031 39.328125 -14.867188 39.328125 -18.765625 Z M 12.984375 -18.765625 C 12.984375 -22.054688 13.660156 -24.59375 15.015625 -26.375 C 16.378906 -28.15625 18.203125 -29.046875 20.484375 -29.046875 C 22.765625 -29.046875 24.582031 -28.15625 25.9375 -26.375 C 27.300781 -24.59375 27.984375 -22.054688 27.984375 -18.765625 C 27.984375 -15.484375 27.300781 -12.953125 25.9375 -11.171875 C 24.582031 -9.390625 22.765625 -8.5 20.484375 -8.5 C 18.203125 -8.5 16.378906 -9.390625 15.015625 -11.171875 C 13.660156 -12.953125 12.984375 -15.484375 12.984375 -18.765625 Z M 12.984375 -18.765625 "/></g></g></g><g fill="#000000" fill-opacity="1"><g transform="translate(656.19474, 127.988248)"><g><path d="M 0.28125 -5.5 C 1.425781 -4.113281 2.960938 -2.957031 4.890625 -2.03125 C 6.816406 -1.101562 8.894531 -0.40625 11.125 0.0625 C 13.363281 0.539062 15.578125 0.78125 17.765625 0.78125 C 20.953125 0.78125 23.84375 0.269531 26.4375 -0.75 C 29.03125 -1.769531 31.085938 -3.242188 32.609375 -5.171875 C 34.140625 -7.097656 34.90625 -9.441406 34.90625 -12.203125 C 34.90625 -14.347656 34.488281 -16.082031 33.65625 -17.40625 C 32.820312 -18.738281 31.703125 -19.8125 30.296875 -20.625 C 28.890625 -21.4375 27.34375 -22.066406 25.65625 -22.515625 C 23.96875 -22.972656 22.269531 -23.367188 20.5625 -23.703125 C 18.269531 -24.128906 16.566406 -24.507812 15.453125 -24.84375 C 14.335938 -25.175781 13.78125 -25.863281 13.78125 -26.90625 C 13.78125 -27.757812 14.195312 -28.4375 15.03125 -28.9375 C 15.863281 -29.4375 16.96875 -29.6875 18.34375 -29.6875 C 22.25 -29.6875 25.675781 -28.140625 28.625 -25.046875 L 34.328125 -32.40625 C 32.753906 -34.113281 30.550781 -35.539062 27.71875 -36.6875 C 24.894531 -37.832031 21.796875 -38.40625 18.421875 -38.40625 C 15.328125 -38.40625 12.566406 -37.878906 10.140625 -36.828125 C 7.710938 -35.785156 5.804688 -34.3125 4.421875 -32.40625 C 3.046875 -30.5 2.359375 -28.257812 2.359375 -25.6875 C 2.359375 -23.644531 2.722656 -21.976562 3.453125 -20.6875 C 4.191406 -19.40625 5.179688 -18.375 6.421875 -17.59375 C 7.660156 -16.8125 9.039062 -16.203125 10.5625 -15.765625 C 12.082031 -15.335938 13.628906 -14.984375 15.203125 -14.703125 C 18.203125 -14.179688 20.367188 -13.71875 21.703125 -13.3125 C 23.035156 -12.90625 23.703125 -12.082031 23.703125 -10.84375 C 23.703125 -9.84375 23.148438 -9.09375 22.046875 -8.59375 C 20.953125 -8.09375 19.671875 -7.84375 18.203125 -7.84375 C 16.148438 -7.84375 14.019531 -8.316406 11.8125 -9.265625 C 9.601562 -10.222656 7.734375 -11.535156 6.203125 -13.203125 Z M 0.28125 -5.5 "/></g></g></g><g fill="#000000" fill-opacity="1"><g transform="translate(692.518843, 127.988248)"><g><path d="M 20.703125 0.78125 C 24.460938 0.78125 27.910156 -0.144531 31.046875 -2 C 34.191406 -3.851562 36.453125 -6.585938 37.828125 -10.203125 L 28.265625 -13.28125 C 27.742188 -11.65625 26.828125 -10.414062 25.515625 -9.5625 C 24.203125 -8.707031 22.644531 -8.28125 20.84375 -8.28125 C 18.65625 -8.28125 16.832031 -8.976562 15.375 -10.375 C 13.925781 -11.78125 13.015625 -13.769531 12.640625 -16.34375 L 38.109375 -16.34375 L 38.109375 -19.34375 C 38.109375 -22.914062 37.429688 -26.140625 36.078125 -29.015625 C 34.722656 -31.890625 32.734375 -34.171875 30.109375 -35.859375 C 27.492188 -37.554688 24.285156 -38.40625 20.484375 -38.40625 C 16.867188 -38.40625 13.644531 -37.546875 10.8125 -35.828125 C 7.976562 -34.117188 5.738281 -31.785156 4.09375 -28.828125 C 2.457031 -25.878906 1.640625 -22.550781 1.640625 -18.84375 C 1.640625 -14.9375 2.4375 -11.507812 4.03125 -8.5625 C 5.625 -5.613281 7.847656 -3.316406 10.703125 -1.671875 C 13.554688 -0.0351562 16.890625 0.78125 20.703125 0.78125 Z M 20.34375 -29.546875 C 22.4375 -29.546875 24.03125 -28.925781 25.125 -27.6875 C 26.21875 -26.457031 26.789062 -25.007812 26.84375 -23.34375 L 12.984375 -23.34375 C 13.554688 -25.382812 14.484375 -26.925781 15.765625 -27.96875 C 17.054688 -29.019531 18.582031 -29.546875 20.34375 -29.546875 Z M 20.34375 -29.546875 "/></g></g></g></svg>