<svg width="32" height="32" viewBox="0 0 32 32" fill="none" xmlns="http://www.w3.org/2000/svg">
<path fill-rule="evenodd" clip-rule="evenodd" d="M23 11C21.8954 11 21 10.1046 21 9C21 7.89543 21.8954 7 23 7C24.1046 7 25 7.89543 25 9C25 10.1046 24.1046 11 23 11ZM18 9C18 6.23858 20.2386 4 23 4C25.7614 4 28 6.23858 28 9C28 11.7614 25.7614 14 23 14C20.2386 14 18 11.7614 18 9ZM23 25C21.8954 25 21 24.1046 21 23C21 21.8954 21.8954 21 23 21C24.1046 21 25 21.8954 25 23C25 24.1046 24.1046 25 23 25ZM18 23C18 20.2386 20.2386 18 23 18C25.7614 18 28 20.2386 28 23C28 25.7614 25.7614 28 23 28C20.2386 28 18 25.7614 18 23ZM7 23C7 24.1046 7.89543 25 9 25C10.1046 25 11 24.1046 11 23C11 21.8954 10.1046 21 9 21C7.89543 21 7 21.8954 7 23ZM9 18C6.23858 18 4 20.2386 4 23C4 25.7614 6.23858 28 9 28C11.7614 28 14 25.7614 14 23C14 20.2386 11.7614 18 9 18ZM9 4C6.23858 4 4 6.23858 4 9C4 11.7614 6.23858 14 9 14C11.7614 14 14 11.7614 14 9C14 6.23858 11.7614 4 9 4Z" fill="currentColor"/>
</svg>
